REM MD5 ecef1b899b48df22bf918f571d71e0b4
FILE "Zoboomafoo - Leapin' Lemurs! (USA).bin" BINARY
  TRACK 01 MODE2/2352
    INDEX 01 00:00:00
  TRACK 02 AUDIO
    INDEX 00 37:55:45
    INDEX 01 37:57:45
  TRACK 03 AUDIO
    INDEX 00 41:52:42
    INDEX 01 41:54:42
  TRACK 04 AUDIO
    INDEX 00 44:56:02
    INDEX 01 44:58:02
  TRACK 05 AUDIO
    INDEX 00 49:55:24
    INDEX 01 49:57:24
  TRACK 06 AUDIO
    INDEX 00 53:52:23
    INDEX 01 53:54:23
REM LEADOUT 57:03:31
